<?xml version="1.0" encoding="UTF-8"?>
<svg width="23px" height="24px" viewBox="0 0 23 24" version="1.1" xmlns="http://www.w3.org/2000/svg" xmlns:xlink="http://www.w3.org/1999/xlink">
    <!-- Generator: Sketch 52.1 (67048) - http://www.bohemiancoding.com/sketch -->
    <title>noun_Honeycomb_918777</title>
    <desc>Created with Sketch.</desc>
    <g id="Symbols" stroke="none" stroke-width="1" fill="none" fill-rule="evenodd">
        <g id="//footer" transform="translate(-143.000000, -44.000000)" fill="#333C4E" fill-rule="nonzero">
            <g id="honeycomblogo">
                <g transform="translate(143.000000, 44.000000)">
                    <g id="noun_Honeycomb_918777">
                        <path d="M22.5911111,7.17446809 L21.2366667,4.85106383 C20.8788889,4.21276596 20.1888889,3.82978723 19.4733333,3.82978723 L16.79,3.82978723 C16.56,3.82978723 16.3555556,3.88085106 16.1511111,3.93191489 C16.1,3.72765957 16.0233333,3.54893617 15.9466667,3.37021277 L14.5922222,1.04680851 C14.2344444,0.408510638 13.5444444,0.0255319149 12.8288889,0.0255319149 L10.1455556,0.0255319149 C9.40444444,0.0255319149 8.74,0.408510638 8.38222222,1.04680851 L7.02777778,3.37021277 C6.92555556,3.54893617 6.84888889,3.72765957 6.82333333,3.90638298 C6.64444444,3.85531915 6.44,3.82978723 6.23555556,3.82978723 L3.52666667,3.82978723 C2.78555556,3.82978723 2.12111111,4.21276596 1.76333333,4.85106383 L0.408888889,7.17446809 C0.0511111111,7.81276596 0.0511111111,8.5787234 0.408888889,9.21702128 L1.76333333,11.5404255 C1.86555556,11.7191489 1.99333333,11.8723404 2.12111111,12 C1.99333333,12.1276596 1.86555556,12.2808511 1.76333333,12.4595745 L0.408888889,14.7829787 C0.0511111111,15.4212766 0.0511111111,16.187234 0.408888889,16.8255319 L1.76333333,19.1489362 C2.12111111,19.787234 2.81111111,20.1702128 3.52666667,20.1702128 L6.21,20.1702128 C6.41444444,20.1702128 6.61888889,20.1446809 6.79777778,20.093617 C6.84888889,20.2723404 6.9,20.4510638 7.00222222,20.6297872 L8.35666667,22.9531915 C8.71444444,23.5914894 9.40444444,23.9744681 10.12,23.9744681 L12.8033333,23.9744681 C13.5444444,23.9744681 14.2088889,23.5914894 14.5666667,22.9531915 L15.9211111,20.6297872 C16.2788889,19.9914894 16.2788889,19.2255319 15.9211111,18.587234 L14.5666667,16.2638298 C14.2088889,15.6255319 13.5188889,15.2425532 12.8033333,15.2425532 L10.1455556,15.2425532 C9.94111111,15.2425532 9.73666667,15.2680851 9.55777778,15.3191489 C9.50666667,15.1404255 9.45555556,14.9617021 9.35333333,14.7829787 L7.99888889,12.4595745 C7.89666667,12.2808511 7.76888889,12.1276596 7.64111111,12 C7.76888889,11.8723404 7.89666667,11.7191489 7.99888889,11.5404255 L9.35333333,9.21702128 C9.45555556,9.03829787 9.53222222,8.85957447 9.55777778,8.68085106 C9.73666667,8.73191489 9.94111111,8.75744681 10.1455556,8.75744681 L12.8288889,8.75744681 C13.0588889,8.75744681 13.2633333,8.70638298 13.4677778,8.65531915 C13.5188889,8.85957447 13.5955556,9.03829787 13.6722222,9.21702128 L15.0266667,11.5404255 C15.3844444,12.1787234 16.0744444,12.5617021 16.79,12.5617021 L19.4733333,12.5617021 C20.2144444,12.5617021 20.8788889,12.1787234 21.2366667,11.5404255 L22.5911111,9.21702128 C22.9488889,8.60425532 22.9488889,7.81276596 22.5911111,7.17446809 Z M9.35333333,16.8255319 C9.50666667,16.5446809 9.81333333,16.3659574 10.1455556,16.3659574 L12.8288889,16.3659574 C13.1611111,16.3659574 13.4422222,16.5446809 13.6211111,16.8255319 L14.9755556,19.1489362 C15.1288889,19.4297872 15.1288889,19.7617021 14.9755556,20.0425532 L13.6211111,22.3659574 C13.4677778,22.6468085 13.1611111,22.8255319 12.8288889,22.8255319 L10.1455556,22.8255319 C9.81333333,22.8255319 9.53222222,22.6468085 9.35333333,22.3659574 L7.99888889,20.0425532 C7.84555556,19.7617021 7.84555556,19.4297872 7.99888889,19.1489362 L9.35333333,16.8255319 Z M8.35666667,15.3446809 C8.51,15.6255319 8.51,15.9574468 8.35666667,16.2382979 L7.00222222,18.5617021 C6.84888889,18.8425532 6.54222222,19.0212766 6.21,19.0212766 L3.52666667,19.0212766 C3.19444444,19.0212766 2.91333333,18.8425532 2.73444444,18.5617021 L1.38,16.2382979 C1.22666667,15.9574468 1.22666667,15.6255319 1.38,15.3446809 L2.73444444,13.0212766 C2.88777778,12.7404255 3.19444444,12.5617021 3.52666667,12.5617021 L6.21,12.5617021 C6.54222222,12.5617021 6.82333333,12.7404255 7.00222222,13.0212766 L8.35666667,15.3446809 Z M8.35666667,8.65531915 L7.00222222,10.9787234 C6.84888889,11.2595745 6.54222222,11.4382979 6.21,11.4382979 L3.52666667,11.4382979 C3.19444444,11.4382979 2.91333333,11.2595745 2.73444444,10.9787234 L1.38,8.65531915 C1.22666667,8.37446809 1.22666667,8.04255319 1.38,7.76170213 L2.73444444,5.43829787 C2.88777778,5.15744681 3.19444444,4.9787234 3.52666667,4.9787234 L6.21,4.9787234 C6.54222222,4.9787234 6.82333333,5.15744681 7.00222222,5.43829787 L8.35666667,7.76170213 C8.51,8.04255319 8.51,8.37446809 8.35666667,8.65531915 Z M13.5955556,7.17446809 C13.4422222,7.45531915 13.1355556,7.63404255 12.8033333,7.63404255 L10.1455556,7.63404255 C9.81333333,7.63404255 9.53222222,7.45531915 9.35333333,7.17446809 L7.99888889,4.85106383 C7.84555556,4.57021277 7.84555556,4.23829787 7.99888889,3.95744681 L9.35333333,1.63404255 C9.50666667,1.35319149 9.81333333,1.17446809 10.1455556,1.17446809 L12.8288889,1.17446809 C13.1611111,1.17446809 13.4422222,1.35319149 13.6211111,1.63404255 L14.9755556,3.95744681 C15.1288889,4.23829787 15.1288889,4.57021277 14.9755556,4.85106383 L13.5955556,7.17446809 Z M21.5944444,8.65531915 L20.24,10.9787234 C20.0866667,11.2595745 19.78,11.4382979 19.4477778,11.4382979 L16.79,11.4382979 C16.4577778,11.4382979 16.1766667,11.2595745 15.9977778,10.9787234 L14.6433333,8.65531915 C14.49,8.37446809 14.49,8.04255319 14.6433333,7.76170213 L15.9977778,5.43829787 C16.1511111,5.15744681 16.4577778,4.9787234 16.79,4.9787234 L19.4733333,4.9787234 C19.8055556,4.9787234 20.0866667,5.15744681 20.2655556,5.43829787 L21.62,7.76170213 C21.7477778,8.04255319 21.7477778,8.37446809 21.5944444,8.65531915 Z" id="Shape"></path>
                    </g>
                </g>
            </g>
        </g>
    </g>
</svg>