<?xml version="1.0" encoding="UTF-8"?>
<svg width="27px" height="25px" viewBox="0 0 27 25" version="1.1" xmlns="http://www.w3.org/2000/svg" xmlns:xlink="http://www.w3.org/1999/xlink">
    <!-- Generator: Sketch 52.1 (67048) - http://www.bohemiancoding.com/sketch -->
    <title>Слой_151</title>
    <desc>Created with Sketch.</desc>
    <g id="Page-1" stroke="none" stroke-width="1" fill="none" fill-rule="evenodd">
        <g id="honecomb004_02_onboard2" transform="translate(-1086.000000, -28.000000)" fill="#FFFFFF">
            <g id="Слой_151" transform="translate(1086.000000, 28.000000)">
                <path d="M21.432,2.07317073 C23.4202251,2.07317073 25.032,3.71115335 25.032,5.73170732 L25.032,15.4878049 C25.032,17.5083588 23.4202251,19.1463415 21.432,19.1463415 L10.482,19.1463415 L6.432,22.804878 L6.432,19.1463415 L5.832,19.1463415 C3.8437749,19.1463415 2.232,17.5083588 2.232,15.4878049 L2.232,5.73170732 C2.232,3.71115335 3.8437749,2.07317073 5.832,2.07317073 L21.432,2.07317073 L21.432,2.07317073 Z M21.432,0.243902439 L5.832,0.243902439 C2.84966235,0.243902439 0.432,2.70087637 0.432,5.73170732 L0.432,15.4878049 C0.430589481,18.0499374 2.17389956,20.2721009 4.632,20.8414634 L4.632,22.804878 C4.63106853,23.5266868 5.04788918,24.1815642 5.69607517,24.4766733 C6.34426117,24.7717823 7.10260368,24.6519386 7.632,24.1707317 L11.172,20.9756098 L21.432,20.9756098 C24.4143376,20.9756098 26.832,18.5186358 26.832,15.4878049 L26.832,5.73170732 C26.832,2.70087637 24.4143376,0.243902439 21.432,0.243902439 L21.432,0.243902439 Z" id="Shape"></path>
                <ellipse id="Oval" cx="13.632" cy="10.6097561" rx="1" ry="1"></ellipse>
                <ellipse id="Oval" cx="19.632" cy="10.6097561" rx="1" ry="1"></ellipse>
                <ellipse id="Oval" cx="7.704" cy="10.6097561" rx="1" ry="1"></ellipse>
            </g>
        </g>
    </g>
</svg>