<?xml version="1.0" encoding="UTF-8"?>
<svg width="23px" height="28px" viewBox="0 0 23 28" version="1.1" xmlns="http://www.w3.org/2000/svg" xmlns:xlink="http://www.w3.org/1999/xlink">
    <!-- Generator: Sketch 52.1 (67048) - http://www.bohemiancoding.com/sketch -->
    <title>Notification</title>
    <desc>Created with Sketch.</desc>
    <g id="Page-1" stroke="none" stroke-width="1" fill="none" fill-rule="evenodd">
        <g id="honecomb004_02_onboard2" transform="translate(-1159.000000, -26.000000)" fill="#FFFFFF">
            <g id="Notification" transform="translate(1159.000000, 26.000000)">
                <path d="M22.0917949,21.273913 C21.85,21.0426087 19.8861538,18.9669565 19.8861538,12.4173913 C19.8400376,10.178333 19.0392313,8.02588209 17.6215385,6.33043478 C16.8606699,5.39164457 15.9187028,4.6267066 14.855641,4.08434783 C14.8604277,4.0296766 14.8604277,3.97467122 14.855641,3.92 C14.855641,2.07104671 13.4034364,0.572173913 11.6120513,0.572173913 C9.82066613,0.572173913 8.36846154,2.07104671 8.36846154,3.92 C8.3636749,3.97467122 8.3636749,4.0296766 8.36846154,4.08434783 C7.30539978,4.6267066 6.3634327,5.39164457 5.6025641,6.33043478 C4.18487128,8.02588209 3.38406494,10.178333 3.33794872,12.4173913 C3.33794872,18.9547826 1.38,21.0243478 1.13820513,21.2556522 C0.474707131,21.6653212 0.166032453,22.4881473 0.389230769,23.2521739 C0.624717076,24.0525483 1.34826448,24.5927332 2.15846154,24.5730435 L7.92615385,24.5730435 C7.60113554,24.9237039 7.60113554,25.4762961 7.92615385,25.8269565 C8.87755485,26.8354184 10.1834289,27.4042468 11.5471795,27.4042468 C12.9109301,27.4042468 14.2168041,26.8354184 15.1682051,25.8269565 C15.4712694,25.4814396 15.4712694,24.9550822 15.1682051,24.6095652 L21.0125641,24.6095652 C21.8227612,24.6292549 22.5463086,24.0890701 22.7817949,23.2886957 C23.0229874,22.5332865 22.7393514,21.7050766 22.0917949,21.273913 L22.0917949,21.273913 Z M11.6297436,2.37391304 C12.2471288,2.42825562 12.781582,2.83844093 13.0097436,3.43304348 C12.0995034,3.23743769 11.1599838,3.23743769 10.2497436,3.43304348 C10.4779051,2.83844093 11.0123584,2.42825562 11.6297436,2.37391304 L11.6297436,2.37391304 Z M11.6297436,5.11304348 C15.3687179,5.11304348 18.1169231,9.00869565 18.1169231,12.4173913 C18.0837673,14.4690126 18.3158121,16.516037 18.8069231,18.5043478 L4.4525641,18.5043478 C4.94367505,16.516037 5.17571989,14.4690126 5.1425641,12.4173913 C5.1425641,9.00869565 7.89076923,5.11304348 11.6297436,5.11304348 Z M11.5884615,25.5895652 C10.70261,25.5993734 9.85100978,25.2367994 9.22948718,24.5852174 L13.8884615,24.5852174 C13.2816462,25.2222823 12.4540046,25.583691 11.5884615,25.5895652 L11.5884615,25.5895652 Z M2.19384615,22.7652174 C2.93151678,22.1102287 3.49569229,21.2723785 3.83333333,20.3304348 L19.4320513,20.3304348 C19.7696923,21.2723785 20.3338678,22.1102287 21.0715385,22.7652174 L2.19384615,22.7652174 Z" id="Shape"></path>
            </g>
        </g>
    </g>
</svg>